<?xml version="1.0" standalone="no"?>
<!DOCTYPE svg PUBLIC "-//W3C//DTD SVG 20010904//EN"
 "http://www.w3.org/TR/2001/REC-SVG-20010904/DTD/svg10.dtd">
<svg version="1.0" xmlns="http://www.w3.org/2000/svg"
 width="667.000000pt" height="667.000000pt" viewBox="0 0 667.000000 667.000000"
 preserveAspectRatio="xMidYMid meet">
<metadata>
Created by potrace 1.11, written by Peter Selinger 2001-2013
</metadata>
<g transform="translate(0.000000,667.000000) scale(0.100000,-0.100000)"
fill="#000000" stroke="none">
<path d="M4290 6387 c-69 -35 -87 -133 -34 -188 l27 -28 3 -268 c3 -147 6
-370 8 -496 1 -125 5 -229 7 -231 2 -3 24 -6 49 -8 l45 -3 2 85 c7 339 12 609
12 752 1 150 3 169 20 185 58 57 55 136 -8 190 -30 26 -90 31 -131 10z"/>
<path d="M2250 6344 c0 -6 -38 -89 -84 -185 -46 -96 -95 -199 -109 -229 -14
-30 -58 -122 -97 -205 -40 -82 -89 -186 -110 -230 -21 -44 -63 -134 -95 -200
-62 -129 -98 -207 -190 -410 -50 -109 -104 -234 -130 -300 -15 -38 -33 -83
-41 -100 -23 -54 -54 -158 -54 -184 0 -21 -114 -323 -166 -438 -8 -17 -14 -34
-14 -38 0 -4 -6 -21 -14 -38 -50 -109 -192 -479 -212 -552 -2 -5 -21 -66 -43
-135 -59 -186 -158 -501 -196 -620 -74 -235 -152 -482 -250 -790 -57 -179
-127 -399 -155 -490 -29 -91 -69 -219 -90 -285 -21 -66 -62 -193 -90 -283 -29
-90 -50 -166 -47 -169 6 -5 328 -4 657 2 80 1 375 5 655 9 281 4 605 9 720 11
116 2 417 7 670 10 253 3 557 8 675 10 118 2 422 6 675 10 253 3 566 8 695 10
129 3 552 8 940 11 820 7 856 7 864 15 5 5 -30 111 -119 354 -45 123 -88 252
-125 370 -15 50 -51 164 -80 255 -45 144 -82 268 -94 321 -2 8 -33 125 -69
260 -36 134 -77 289 -92 344 -14 55 -30 104 -35 110 -4 5 -13 26 -18 45 -6 19
-24 69 -40 110 -74 190 -157 405 -198 515 -36 96 -212 456 -244 500 -4 6 -51
96 -105 200 -124 242 -314 602 -342 650 -11 19 -14 18 -54 -25 -164 -175 -344
-399 -422 -524 l-36 -59 -11 29 c-21 53 -62 96 -147 151 -97 62 -168 124 -189
164 -8 16 -14 47 -14 70 0 39 5 48 50 90 55 51 54 67 -7 87 -30 10 -35 8 -67
-23 -19 -18 -42 -48 -51 -65 -22 -43 -21 -119 4 -175 23 -51 110 -144 161
-170 61 -31 139 -94 165 -132 32 -47 32 -83 0 -121 -28 -34 -33 -86 -9 -100
13 -8 14 -10 0 -21 -12 -10 -27 -2 -90 49 -114 94 -124 116 -81 185 28 47 33
100 9 109 -41 16 -107 -79 -106 -151 2 -68 39 -121 137 -199 69 -54 75 -60 75
-78 0 -20 -14 -20 -30 -1 -20 24 -29 8 -24 -44 2 -36 -1 -55 -14 -71 -17 -20
-17 -18 -17 69 0 53 -4 92 -10 93 -34 9 -60 -153 -34 -205 10 -19 10 -20 -3
-7 -41 41 -160 255 -288 515 -78 160 -157 313 -175 340 -63 99 -175 282 -175
288 0 3 -27 54 -60 113 -64 115 -80 162 -60 174 19 12 17 14 -214 264 -15 17
-47 51 -70 76 -23 25 -84 95 -135 155 -105 123 -102 120 -190 230 -72 89 -170
202 -216 250 -16 17 -70 75 -120 129 -49 55 -120 131 -156 170 -36 39 -80 87
-97 106 -17 19 -32 30 -32 24z"/>
<path d="M3871 6183 c-23 -8 -105 -46 -181 -84 -141 -71 -293 -134 -346 -143
-98 -19 -145 -18 -239 5 -112 27 -130 21 -97 -33 33 -53 105 -100 173 -112 24
-4 39 -13 42 -25 6 -24 68 -35 134 -24 63 10 68 10 68 -2 3 -53 35 -71 113
-62 44 5 49 3 78 -29 35 -37 67 -43 137 -23 35 9 40 8 58 -15 26 -33 71 -34
140 -5 l50 22 30 -29 c35 -33 83 -36 174 -9 l55 16 -2 132 -3 132 -25 3 c-62
7 -78 22 -120 111 -50 104 -81 146 -123 168 -43 22 -65 23 -116 6z"/>
<path d="M4725 6185 c-48 -20 -91 -74 -135 -166 -22 -48 -47 -92 -55 -99 -8
-6 -32 -14 -55 -17 -35 -5 -40 -9 -41 -32 -5 -175 -4 -233 5 -240 18 -13 131
-38 160 -35 15 1 43 14 62 29 l34 26 44 -21 c63 -28 111 -26 141 6 22 24 27
25 56 15 18 -6 49 -11 70 -11 31 0 43 6 67 36 23 28 35 34 51 29 11 -3 40 -7
63 -7 45 0 78 26 78 64 0 14 5 18 19 13 72 -23 171 -14 178 16 3 10 8 19 12
20 82 11 139 38 185 90 20 21 36 49 36 60 0 24 -8 24 -147 -7 -140 -31 -239
-5 -535 139 -221 107 -242 114 -293 92z"/>
<path d="M3890 5444 c-119 -15 -164 -30 -199 -68 -87 -92 88 -254 339 -315 47
-11 146 -25 220 -31 173 -14 223 -25 286 -62 128 -76 111 -179 -41 -254 -41
-20 -75 -41 -75 -45 0 -12 40 -36 71 -44 54 -13 210 99 248 178 64 133 -27
245 -249 306 -76 21 -116 27 -280 36 -131 8 -210 22 -294 51 -97 33 -150 71
-154 110 -5 46 16 57 105 55 60 -1 91 -8 142 -31 57 -24 72 -27 111 -20 83 16
93 26 69 73 -13 25 -57 66 -73 68 -49 7 -138 4 -226 -7z"/>
<path d="M4575 5446 c-70 -32 -101 -100 -55 -122 49 -24 96 -23 151 2 52 24
97 35 166 38 109 6 137 -63 50 -120 -67 -44 -231 -90 -339 -95 -26 -2 -45 -6
-42 -11 3 -4 13 -8 22 -8 10 0 49 -15 87 -33 l70 -34 60 21 c165 58 285 160
285 243 0 29 -38 69 -84 88 -78 33 -323 53 -371 31z"/>
<path d="M3993 5008 c-86 -95 -78 -184 23 -282 55 -52 154 -106 296 -160 147
-56 208 -110 208 -183 0 -33 -30 -86 -73 -129 -37 -37 -43 -66 -17 -89 18 -16
21 -15 70 31 101 94 132 191 91 278 -37 75 -126 141 -236 176 -22 7 -85 34
-140 60 -86 41 -103 54 -123 88 -40 72 -23 129 55 177 23 16 43 29 43 29 0 1
-12 3 -27 4 -16 1 -52 7 -82 12 -70 13 -64 14 -88 -12z"/>
<path d="M4301 4846 l2 -144 40 -16 c22 -9 42 -15 43 -13 2 2 7 276 5 305 -1
8 -17 12 -46 12 l-46 0 2 -144z"/>
<path d="M4308 4388 c3 -142 3 -143 30 -165 15 -13 31 -22 36 -20 6 2 12 69
14 150 l3 146 -30 15 c-56 30 -56 29 -53 -126z"/>
<path d="M4310 3971 l0 -100 33 -25 32 -25 3 87 c4 109 0 123 -38 145 l-30 18
0 -100z"/>
</g>
</svg>
